# xmcd
#
# Track frame offsets:
#	182
#	16482
#	31860
#	54945
#	76715
#	100277
#	125410
#	147445
#	184282
#	210247
#	243957
#	261485
#	293307
#
# Disc length: 4420 seconds
#
# Revision: 2
# Processed by: cddbd v1.5.2PL0 Copyright (c) Steve Scherf et al.
# Submitted via: audiograbber 1.83.01
#
DISCID=a911420d
DTITLE=Brown, Chuck and The Soul Searchers - Any other way to go
DYEAR=1987
DGENRE=Gogo
TTITLE0=It don't mean a thing
TTITLE1=Midnight sun
TTITLE2=Moody's mood
TTITLE3=Woody Woodpecker
TTITLE4=Here we go again
TTITLE5=Harlem nocturne
TTITLE6=The message
TTITLE7=Run Joe 
TTITLE8=Stormy Monday
TTITLE9=Family affair
TTITLE10=Do that stuff
TTITLE11=Go-go drug free
TTITLE12=Be bumpin fresh
EXTD=
EXTT0=
EXTT1=
EXTT2=
EXTT3=
EXTT4=
EXTT5=
EXTT6=
EXTT7=
EXTT8=
EXTT9=
EXTT10=
EXTT11=
EXTT12=
PLAYORDER=
